<?xml version="1.0" encoding="UTF-8" standalone="no"?>
<!DOCTYPE svg PUBLIC "-//W3C//DTD SVG 1.1//EN"
 "http://www.w3.org/Graphics/SVG/1.1/DTD/svg11.dtd">
<!-- Generated by graphviz version 2.38.0 (20140413.2041)
 -->
<!-- Title: classes Pages: 1 -->
<svg width="1132pt" height="664pt"
 viewBox="0.00 0.00 1132.00 664.00" xmlns="http://www.w3.org/2000/svg" xmlns:xlink="http://www.w3.org/1999/xlink">
<g id="graph0" class="graph" transform="scale(1 1) rotate(0) translate(4 660)">
<title>classes</title>
<polygon fill="white" stroke="none" points="-4,4 -4,-660 1128,-660 1128,4 -4,4"/>
<!-- 0 -->
<g id="node1" class="node"><title>0</title>
<polygon fill="none" stroke="black" points="294.5,-481.5 294.5,-655.5 436.5,-655.5 436.5,-481.5 294.5,-481.5"/>
<text text-anchor="middle" x="365.5" y="-640.3" font-family="Times New Roman,serif" font-size="14.00">BComponent</text>
<polyline fill="none" stroke="black" points="294.5,-632.5 436.5,-632.5 "/>
<text text-anchor="start" x="302.5" y="-617.3" font-family="Times New Roman,serif" font-size="14.00">devTYPE : NoneType</text>
<text text-anchor="start" x="302.5" y="-602.3" font-family="Times New Roman,serif" font-size="14.00">energy : NoneType</text>
<text text-anchor="start" x="302.5" y="-587.3" font-family="Times New Roman,serif" font-size="14.00">fdotok</text>
<text text-anchor="start" x="302.5" y="-572.3" font-family="Times New Roman,serif" font-size="14.00">nodes : list</text>
<polyline fill="none" stroke="black" points="294.5,-564.5 436.5,-564.5 "/>
<text text-anchor="start" x="302.5" y="-549.3" font-family="Times New Roman,serif" font-size="14.00">export()</text>
<text text-anchor="start" x="302.5" y="-534.3" font-family="Times New Roman,serif" font-size="14.00">fdot()</text>
<text text-anchor="start" x="302.5" y="-519.3" font-family="Times New Roman,serif" font-size="14.00">simulate()</text>
<text text-anchor="start" x="302.5" y="-504.3" font-family="Times New Roman,serif" font-size="14.00">sm_energy()</text>
<text text-anchor="start" x="302.5" y="-489.3" font-family="Times New Roman,serif" font-size="14.00">state()</text>
</g>
<!-- 1 -->
<g id="node2" class="node"><title>1</title>
<polygon fill="none" stroke="black" points="0,-83 0,-347 97,-347 97,-83 0,-83"/>
<text text-anchor="middle" x="48.5" y="-331.8" font-family="Times New Roman,serif" font-size="14.00">Boiler</text>
<polyline fill="none" stroke="black" points="0,-324 97,-324 "/>
<text text-anchor="start" x="8" y="-308.8" font-family="Times New Roman,serif" font-size="14.00">QAdded</text>
<text text-anchor="start" x="8" y="-293.8" font-family="Times New Roman,serif" font-size="14.00">devTYPE : str</text>
<text text-anchor="start" x="8" y="-278.8" font-family="Times New Roman,serif" font-size="14.00">energy : str</text>
<text text-anchor="start" x="8" y="-263.8" font-family="Times New Roman,serif" font-size="14.00">fdotok : bool</text>
<text text-anchor="start" x="8" y="-248.8" font-family="Times New Roman,serif" font-size="14.00">heatAdded</text>
<text text-anchor="start" x="8" y="-233.8" font-family="Times New Roman,serif" font-size="14.00">inNode</text>
<text text-anchor="start" x="8" y="-218.8" font-family="Times New Roman,serif" font-size="14.00">name</text>
<text text-anchor="start" x="8" y="-203.8" font-family="Times New Roman,serif" font-size="14.00">nodes : list</text>
<text text-anchor="start" x="8" y="-188.8" font-family="Times New Roman,serif" font-size="14.00">outNode</text>
<text text-anchor="start" x="8" y="-173.8" font-family="Times New Roman,serif" font-size="14.00">type</text>
<polyline fill="none" stroke="black" points="0,-166 97,-166 "/>
<text text-anchor="start" x="8" y="-150.8" font-family="Times New Roman,serif" font-size="14.00">export()</text>
<text text-anchor="start" x="8" y="-135.8" font-family="Times New Roman,serif" font-size="14.00">fdot()</text>
<text text-anchor="start" x="8" y="-120.8" font-family="Times New Roman,serif" font-size="14.00">simulate()</text>
<text text-anchor="start" x="8" y="-105.8" font-family="Times New Roman,serif" font-size="14.00">sm_energy()</text>
<text text-anchor="start" x="8" y="-90.8" font-family="Times New Roman,serif" font-size="14.00">state()</text>
</g>
<!-- 1&#45;&gt;0 -->
<g id="edge1" class="edge"><title>1&#45;&gt;0</title>
<path fill="none" stroke="black" d="M65.3559,-347.081C73.8329,-376.573 86.523,-406.161 105.5,-430 150.989,-487.143 226.814,-523.356 284.874,-544.189"/>
<polygon fill="none" stroke="black" points="283.803,-547.522 294.397,-547.526 286.118,-540.915 283.803,-547.522"/>
</g>
<!-- 2 -->
<g id="node3" class="node"><title>2</title>
<polygon fill="none" stroke="black" points="115,-83 115,-347 212,-347 212,-83 115,-83"/>
<text text-anchor="middle" x="163.5" y="-331.8" font-family="Times New Roman,serif" font-size="14.00">Condenser</text>
<polyline fill="none" stroke="black" points="115,-324 212,-324 "/>
<text text-anchor="start" x="123" y="-308.8" font-family="Times New Roman,serif" font-size="14.00">QExtracted</text>
<text text-anchor="start" x="123" y="-293.8" font-family="Times New Roman,serif" font-size="14.00">devTYPE : str</text>
<text text-anchor="start" x="123" y="-278.8" font-family="Times New Roman,serif" font-size="14.00">energy : str</text>
<text text-anchor="start" x="123" y="-263.8" font-family="Times New Roman,serif" font-size="14.00">fdotok : bool</text>
<text text-anchor="start" x="123" y="-248.8" font-family="Times New Roman,serif" font-size="14.00">heatExtracted</text>
<text text-anchor="start" x="123" y="-233.8" font-family="Times New Roman,serif" font-size="14.00">inNode</text>
<text text-anchor="start" x="123" y="-218.8" font-family="Times New Roman,serif" font-size="14.00">name</text>
<text text-anchor="start" x="123" y="-203.8" font-family="Times New Roman,serif" font-size="14.00">nodes : list</text>
<text text-anchor="start" x="123" y="-188.8" font-family="Times New Roman,serif" font-size="14.00">outNode</text>
<text text-anchor="start" x="123" y="-173.8" font-family="Times New Roman,serif" font-size="14.00">type</text>
<polyline fill="none" stroke="black" points="115,-166 212,-166 "/>
<text text-anchor="start" x="123" y="-150.8" font-family="Times New Roman,serif" font-size="14.00">export()</text>
<text text-anchor="start" x="123" y="-135.8" font-family="Times New Roman,serif" font-size="14.00">fdot()</text>
<text text-anchor="start" x="123" y="-120.8" font-family="Times New Roman,serif" font-size="14.00">simulate()</text>
<text text-anchor="start" x="123" y="-105.8" font-family="Times New Roman,serif" font-size="14.00">sm_energy()</text>
<text text-anchor="start" x="123" y="-90.8" font-family="Times New Roman,serif" font-size="14.00">state()</text>
</g>
<!-- 2&#45;&gt;0 -->
<g id="edge2" class="edge"><title>2&#45;&gt;0</title>
<path fill="none" stroke="black" d="M186.193,-347.077C194.414,-375.622 205.525,-404.797 220.5,-430 237.604,-458.786 262.421,-485.41 286.704,-507.412"/>
<polygon fill="none" stroke="black" points="284.415,-510.06 294.214,-514.089 289.067,-504.829 284.415,-510.06"/>
</g>
<!-- 3 -->
<g id="node4" class="node"><title>3</title>
<polygon fill="none" stroke="black" points="732.5,-60.5 732.5,-369.5 848.5,-369.5 848.5,-60.5 732.5,-60.5"/>
<text text-anchor="middle" x="790.5" y="-354.3" font-family="Times New Roman,serif" font-size="14.00">Node</text>
<polyline fill="none" stroke="black" points="732.5,-346.5 848.5,-346.5 "/>
<text text-anchor="start" x="740.5" y="-331.3" font-family="Times New Roman,serif" font-size="14.00">fdot : NoneType</text>
<text text-anchor="start" x="740.5" y="-316.3" font-family="Times New Roman,serif" font-size="14.00">h : NoneType</text>
<text text-anchor="start" x="740.5" y="-301.3" font-family="Times New Roman,serif" font-size="14.00">mdot : NoneType</text>
<text text-anchor="start" x="740.5" y="-286.3" font-family="Times New Roman,serif" font-size="14.00">name</text>
<text text-anchor="start" x="740.5" y="-271.3" font-family="Times New Roman,serif" font-size="14.00">nodeid</text>
<text text-anchor="start" x="740.5" y="-256.3" font-family="Times New Roman,serif" font-size="14.00">p : NoneType</text>
<text text-anchor="start" x="740.5" y="-241.3" font-family="Times New Roman,serif" font-size="14.00">s : NoneType</text>
<text text-anchor="start" x="740.5" y="-226.3" font-family="Times New Roman,serif" font-size="14.00">t : NoneType</text>
<text text-anchor="start" x="740.5" y="-211.3" font-family="Times New Roman,serif" font-size="14.00">title : str</text>
<text text-anchor="start" x="740.5" y="-196.3" font-family="Times New Roman,serif" font-size="14.00">v : NoneType</text>
<text text-anchor="start" x="740.5" y="-181.3" font-family="Times New Roman,serif" font-size="14.00">x : NoneType</text>
<polyline fill="none" stroke="black" points="732.5,-173.5 848.5,-173.5 "/>
<text text-anchor="start" x="740.5" y="-158.3" font-family="Times New Roman,serif" font-size="14.00">calmdot()</text>
<text text-anchor="start" x="740.5" y="-143.3" font-family="Times New Roman,serif" font-size="14.00">hs()</text>
<text text-anchor="start" x="740.5" y="-128.3" font-family="Times New Roman,serif" font-size="14.00">ph()</text>
<text text-anchor="start" x="740.5" y="-113.3" font-family="Times New Roman,serif" font-size="14.00">ps()</text>
<text text-anchor="start" x="740.5" y="-98.3" font-family="Times New Roman,serif" font-size="14.00">pt()</text>
<text text-anchor="start" x="740.5" y="-83.3" font-family="Times New Roman,serif" font-size="14.00">px()</text>
<text text-anchor="start" x="740.5" y="-68.3" font-family="Times New Roman,serif" font-size="14.00">tx()</text>
</g>
<!-- 4 -->
<g id="node5" class="node"><title>4</title>
<polygon fill="none" stroke="black" points="230,-60.5 230,-369.5 367,-369.5 367,-60.5 230,-60.5"/>
<text text-anchor="middle" x="298.5" y="-354.3" font-family="Times New Roman,serif" font-size="14.00">OpenedheaterDw0</text>
<polyline fill="none" stroke="black" points="230,-346.5 367,-346.5 "/>
<text text-anchor="start" x="238" y="-331.3" font-family="Times New Roman,serif" font-size="14.00">QAdded : int</text>
<text text-anchor="start" x="238" y="-316.3" font-family="Times New Roman,serif" font-size="14.00">QExtracted : float, int</text>
<text text-anchor="start" x="238" y="-301.3" font-family="Times New Roman,serif" font-size="14.00">devTYPE : str</text>
<text text-anchor="start" x="238" y="-286.3" font-family="Times New Roman,serif" font-size="14.00">energy : str</text>
<text text-anchor="start" x="238" y="-271.3" font-family="Times New Roman,serif" font-size="14.00">fdotok : bool</text>
<text text-anchor="start" x="238" y="-256.3" font-family="Times New Roman,serif" font-size="14.00">heatAdded : int</text>
<text text-anchor="start" x="238" y="-241.3" font-family="Times New Roman,serif" font-size="14.00">heatExtracted : int</text>
<text text-anchor="start" x="238" y="-226.3" font-family="Times New Roman,serif" font-size="14.00">inNode</text>
<text text-anchor="start" x="238" y="-211.3" font-family="Times New Roman,serif" font-size="14.00">inNode_fw</text>
<text text-anchor="start" x="238" y="-196.3" font-family="Times New Roman,serif" font-size="14.00">name</text>
<text text-anchor="start" x="238" y="-181.3" font-family="Times New Roman,serif" font-size="14.00">nodes : list</text>
<text text-anchor="start" x="238" y="-166.3" font-family="Times New Roman,serif" font-size="14.00">outNode_fw</text>
<text text-anchor="start" x="238" y="-151.3" font-family="Times New Roman,serif" font-size="14.00">type</text>
<polyline fill="none" stroke="black" points="230,-143.5 367,-143.5 "/>
<text text-anchor="start" x="238" y="-128.3" font-family="Times New Roman,serif" font-size="14.00">export()</text>
<text text-anchor="start" x="238" y="-113.3" font-family="Times New Roman,serif" font-size="14.00">fdot()</text>
<text text-anchor="start" x="238" y="-98.3" font-family="Times New Roman,serif" font-size="14.00">simulate()</text>
<text text-anchor="start" x="238" y="-83.3" font-family="Times New Roman,serif" font-size="14.00">sm_energy()</text>
<text text-anchor="start" x="238" y="-68.3" font-family="Times New Roman,serif" font-size="14.00">state()</text>
</g>
<!-- 4&#45;&gt;0 -->
<g id="edge3" class="edge"><title>4&#45;&gt;0</title>
<path fill="none" stroke="black" d="M327.79,-369.662C334.367,-404.167 341.164,-439.827 347.145,-471.206"/>
<polygon fill="none" stroke="black" points="343.747,-472.069 349.057,-481.237 350.623,-470.758 343.747,-472.069"/>
</g>
<!-- 5 -->
<g id="node6" class="node"><title>5</title>
<polygon fill="none" stroke="black" points="385,-75.5 385,-354.5 482,-354.5 482,-75.5 385,-75.5"/>
<text text-anchor="middle" x="433.5" y="-339.3" font-family="Times New Roman,serif" font-size="14.00">Pump</text>
<polyline fill="none" stroke="black" points="385,-331.5 482,-331.5 "/>
<text text-anchor="start" x="393" y="-316.3" font-family="Times New Roman,serif" font-size="14.00">WRequired</text>
<text text-anchor="start" x="393" y="-301.3" font-family="Times New Roman,serif" font-size="14.00">devTYPE : str</text>
<text text-anchor="start" x="393" y="-286.3" font-family="Times New Roman,serif" font-size="14.00">ef</text>
<text text-anchor="start" x="393" y="-271.3" font-family="Times New Roman,serif" font-size="14.00">energy : str</text>
<text text-anchor="start" x="393" y="-256.3" font-family="Times New Roman,serif" font-size="14.00">fdotok : bool</text>
<text text-anchor="start" x="393" y="-241.3" font-family="Times New Roman,serif" font-size="14.00">inNode</text>
<text text-anchor="start" x="393" y="-226.3" font-family="Times New Roman,serif" font-size="14.00">name</text>
<text text-anchor="start" x="393" y="-211.3" font-family="Times New Roman,serif" font-size="14.00">nodes : list</text>
<text text-anchor="start" x="393" y="-196.3" font-family="Times New Roman,serif" font-size="14.00">outNode</text>
<text text-anchor="start" x="393" y="-181.3" font-family="Times New Roman,serif" font-size="14.00">type</text>
<text text-anchor="start" x="393" y="-166.3" font-family="Times New Roman,serif" font-size="14.00">workRequired</text>
<polyline fill="none" stroke="black" points="385,-158.5 482,-158.5 "/>
<text text-anchor="start" x="393" y="-143.3" font-family="Times New Roman,serif" font-size="14.00">export()</text>
<text text-anchor="start" x="393" y="-128.3" font-family="Times New Roman,serif" font-size="14.00">fdot()</text>
<text text-anchor="start" x="393" y="-113.3" font-family="Times New Roman,serif" font-size="14.00">simulate()</text>
<text text-anchor="start" x="393" y="-98.3" font-family="Times New Roman,serif" font-size="14.00">sm_energy()</text>
<text text-anchor="start" x="393" y="-83.3" font-family="Times New Roman,serif" font-size="14.00">state()</text>
</g>
<!-- 5&#45;&gt;0 -->
<g id="edge4" class="edge"><title>5&#45;&gt;0</title>
<path fill="none" stroke="black" d="M406.673,-354.67C399.119,-393.72 391.069,-435.328 384.11,-471.301"/>
<polygon fill="none" stroke="black" points="380.641,-470.809 382.178,-481.291 387.513,-472.138 380.641,-470.809"/>
</g>
<!-- 6 -->
<g id="node7" class="node"><title>6</title>
<polygon fill="none" stroke="black" points="866.5,-0.5 866.5,-429.5 1092.5,-429.5 1092.5,-0.5 866.5,-0.5"/>
<text text-anchor="middle" x="979.5" y="-414.3" font-family="Times New Roman,serif" font-size="14.00">RankineCycle</text>
<polyline fill="none" stroke="black" points="866.5,-406.5 1092.5,-406.5 "/>
<text text-anchor="start" x="874.5" y="-391.3" font-family="Times New Roman,serif" font-size="14.00">Comps : dict</text>
<text text-anchor="start" x="874.5" y="-376.3" font-family="Times New Roman,serif" font-size="14.00">DevNum : int</text>
<text text-anchor="start" x="874.5" y="-361.3" font-family="Times New Roman,serif" font-size="14.00">HeatRate : float</text>
<text text-anchor="start" x="874.5" y="-346.3" font-family="Times New Roman,serif" font-size="14.00">NodeNum</text>
<text text-anchor="start" x="874.5" y="-331.3" font-family="Times New Roman,serif" font-size="14.00">NodehNum : int</text>
<text text-anchor="start" x="874.5" y="-316.3" font-family="Times New Roman,serif" font-size="14.00">SteamRate</text>
<text text-anchor="start" x="874.5" y="-301.3" font-family="Times New Roman,serif" font-size="14.00">Wcycledot : NoneType</text>
<text text-anchor="start" x="874.5" y="-286.3" font-family="Times New Roman,serif" font-size="14.00">efficiency : float</text>
<text text-anchor="start" x="874.5" y="-271.3" font-family="Times New Roman,serif" font-size="14.00">fdotok : bool</text>
<text text-anchor="start" x="874.5" y="-256.3" font-family="Times New Roman,serif" font-size="14.00">mdot : NoneType</text>
<text text-anchor="start" x="874.5" y="-241.3" font-family="Times New Roman,serif" font-size="14.00">name : NoneType</text>
<text text-anchor="start" x="874.5" y="-226.3" font-family="Times New Roman,serif" font-size="14.00">netpoweroutput : int</text>
<text text-anchor="start" x="874.5" y="-211.3" font-family="Times New Roman,serif" font-size="14.00">nodes : list</text>
<text text-anchor="start" x="874.5" y="-196.3" font-family="Times New Roman,serif" font-size="14.00">totalQAdded : int</text>
<text text-anchor="start" x="874.5" y="-181.3" font-family="Times New Roman,serif" font-size="14.00">totalWExtracted : int</text>
<text text-anchor="start" x="874.5" y="-166.3" font-family="Times New Roman,serif" font-size="14.00">totalWRequired : int</text>
<text text-anchor="start" x="874.5" y="-151.3" font-family="Times New Roman,serif" font-size="14.00">totalheatAdded : int</text>
<text text-anchor="start" x="874.5" y="-136.3" font-family="Times New Roman,serif" font-size="14.00">totalworkExtracted : int</text>
<text text-anchor="start" x="874.5" y="-121.3" font-family="Times New Roman,serif" font-size="14.00">totalworkRequired : int</text>
<polyline fill="none" stroke="black" points="866.5,-113.5 1092.5,-113.5 "/>
<text text-anchor="start" x="874.5" y="-98.3" font-family="Times New Roman,serif" font-size="14.00">OutFiles()</text>
<text text-anchor="start" x="874.5" y="-83.3" font-family="Times New Roman,serif" font-size="14.00">SpecifiedMassFlowSimulator()</text>
<text text-anchor="start" x="874.5" y="-68.3" font-family="Times New Roman,serif" font-size="14.00">SpecifiedNetOutputPowerSimulator()</text>
<text text-anchor="start" x="874.5" y="-53.3" font-family="Times New Roman,serif" font-size="14.00">addRankine()</text>
<text text-anchor="start" x="874.5" y="-38.3" font-family="Times New Roman,serif" font-size="14.00">componentState()</text>
<text text-anchor="start" x="874.5" y="-23.3" font-family="Times New Roman,serif" font-size="14.00">cycleFdot()</text>
<text text-anchor="start" x="874.5" y="-8.3" font-family="Times New Roman,serif" font-size="14.00">cycleSimulator()</text>
</g>
<!-- 7 -->
<g id="node8" class="node"><title>7</title>
<polygon fill="none" stroke="black" points="835,-504 835,-633 1124,-633 1124,-504 835,-504"/>
<text text-anchor="middle" x="979.5" y="-617.8" font-family="Times New Roman,serif" font-size="14.00">SimRankineCycle</text>
<polyline fill="none" stroke="black" points="835,-610 1124,-610 "/>
<text text-anchor="start" x="843" y="-594.8" font-family="Times New Roman,serif" font-size="14.00">cycle</text>
<text text-anchor="start" x="843" y="-579.8" font-family="Times New Roman,serif" font-size="14.00">jsonfilename</text>
<text text-anchor="start" x="843" y="-564.8" font-family="Times New Roman,serif" font-size="14.00">prefixResultFileName</text>
<polyline fill="none" stroke="black" points="835,-557 1124,-557 "/>
<text text-anchor="start" x="843" y="-541.8" font-family="Times New Roman,serif" font-size="14.00">CycleSimulator()</text>
<text text-anchor="start" x="843" y="-526.8" font-family="Times New Roman,serif" font-size="14.00">SpecifiedMassFlowSimulatorAndOutput()</text>
<text text-anchor="start" x="843" y="-511.8" font-family="Times New Roman,serif" font-size="14.00">SpecifiedNetOutputPowerSimulatorAndOutput()</text>
</g>
<!-- 6&#45;&gt;7 -->
<g id="edge7" class="edge"><title>6&#45;&gt;7</title>
<path fill="none" stroke="black" d="M979.5,-429.587C979.5,-451.639 979.5,-472.857 979.5,-491.761"/>
<polygon fill="black" stroke="black" points="979.5,-491.835 983.5,-497.835 979.5,-503.835 975.5,-497.835 979.5,-491.835"/>
<text text-anchor="middle" x="994.5" y="-451.8" font-family="Times New Roman,serif" font-size="14.00" fill="green">cycle</text>
</g>
<!-- 8 -->
<g id="node9" class="node"><title>8</title>
<polygon fill="none" stroke="black" points="500.5,-75.5 500.5,-354.5 598.5,-354.5 598.5,-75.5 500.5,-75.5"/>
<text text-anchor="middle" x="549.5" y="-339.3" font-family="Times New Roman,serif" font-size="14.00">TurbineEx0</text>
<polyline fill="none" stroke="black" points="500.5,-331.5 598.5,-331.5 "/>
<text text-anchor="start" x="508.5" y="-316.3" font-family="Times New Roman,serif" font-size="14.00">WExtracted</text>
<text text-anchor="start" x="508.5" y="-301.3" font-family="Times New Roman,serif" font-size="14.00">devTYPE : str</text>
<text text-anchor="start" x="508.5" y="-286.3" font-family="Times New Roman,serif" font-size="14.00">ef</text>
<text text-anchor="start" x="508.5" y="-271.3" font-family="Times New Roman,serif" font-size="14.00">energy : str</text>
<text text-anchor="start" x="508.5" y="-256.3" font-family="Times New Roman,serif" font-size="14.00">fdotok : bool</text>
<text text-anchor="start" x="508.5" y="-241.3" font-family="Times New Roman,serif" font-size="14.00">inNode</text>
<text text-anchor="start" x="508.5" y="-226.3" font-family="Times New Roman,serif" font-size="14.00">name</text>
<text text-anchor="start" x="508.5" y="-211.3" font-family="Times New Roman,serif" font-size="14.00">nodes : list</text>
<text text-anchor="start" x="508.5" y="-196.3" font-family="Times New Roman,serif" font-size="14.00">outNode</text>
<text text-anchor="start" x="508.5" y="-181.3" font-family="Times New Roman,serif" font-size="14.00">type</text>
<text text-anchor="start" x="508.5" y="-166.3" font-family="Times New Roman,serif" font-size="14.00">workExtracted</text>
<polyline fill="none" stroke="black" points="500.5,-158.5 598.5,-158.5 "/>
<text text-anchor="start" x="508.5" y="-143.3" font-family="Times New Roman,serif" font-size="14.00">export()</text>
<text text-anchor="start" x="508.5" y="-128.3" font-family="Times New Roman,serif" font-size="14.00">fdot()</text>
<text text-anchor="start" x="508.5" y="-113.3" font-family="Times New Roman,serif" font-size="14.00">simulate()</text>
<text text-anchor="start" x="508.5" y="-98.3" font-family="Times New Roman,serif" font-size="14.00">sm_energy()</text>
<text text-anchor="start" x="508.5" y="-83.3" font-family="Times New Roman,serif" font-size="14.00">state()</text>
</g>
<!-- 8&#45;&gt;0 -->
<g id="edge5" class="edge"><title>8&#45;&gt;0</title>
<path fill="none" stroke="black" d="M521.496,-354.737C513.454,-380.615 503.282,-406.792 490.5,-430 477.997,-452.702 461.031,-474.697 443.635,-494.192"/>
<polygon fill="none" stroke="black" points="440.836,-492.068 436.694,-501.819 446.013,-496.779 440.836,-492.068"/>
</g>
<!-- 9 -->
<g id="node10" class="node"><title>9</title>
<polygon fill="none" stroke="black" points="616.5,-68 616.5,-362 714.5,-362 714.5,-68 616.5,-68"/>
<text text-anchor="middle" x="665.5" y="-346.8" font-family="Times New Roman,serif" font-size="14.00">TurbineEx1</text>
<polyline fill="none" stroke="black" points="616.5,-339 714.5,-339 "/>
<text text-anchor="start" x="624.5" y="-323.8" font-family="Times New Roman,serif" font-size="14.00">WExtracted</text>
<text text-anchor="start" x="624.5" y="-308.8" font-family="Times New Roman,serif" font-size="14.00">devTYPE : str</text>
<text text-anchor="start" x="624.5" y="-293.8" font-family="Times New Roman,serif" font-size="14.00">ef</text>
<text text-anchor="start" x="624.5" y="-278.8" font-family="Times New Roman,serif" font-size="14.00">energy : str</text>
<text text-anchor="start" x="624.5" y="-263.8" font-family="Times New Roman,serif" font-size="14.00">extNode</text>
<text text-anchor="start" x="624.5" y="-248.8" font-family="Times New Roman,serif" font-size="14.00">fdotok : bool</text>
<text text-anchor="start" x="624.5" y="-233.8" font-family="Times New Roman,serif" font-size="14.00">inNode</text>
<text text-anchor="start" x="624.5" y="-218.8" font-family="Times New Roman,serif" font-size="14.00">name</text>
<text text-anchor="start" x="624.5" y="-203.8" font-family="Times New Roman,serif" font-size="14.00">nodes : list</text>
<text text-anchor="start" x="624.5" y="-188.8" font-family="Times New Roman,serif" font-size="14.00">outNode</text>
<text text-anchor="start" x="624.5" y="-173.8" font-family="Times New Roman,serif" font-size="14.00">type</text>
<text text-anchor="start" x="624.5" y="-158.8" font-family="Times New Roman,serif" font-size="14.00">workExtracted</text>
<polyline fill="none" stroke="black" points="616.5,-151 714.5,-151 "/>
<text text-anchor="start" x="624.5" y="-135.8" font-family="Times New Roman,serif" font-size="14.00">export()</text>
<text text-anchor="start" x="624.5" y="-120.8" font-family="Times New Roman,serif" font-size="14.00">fdot()</text>
<text text-anchor="start" x="624.5" y="-105.8" font-family="Times New Roman,serif" font-size="14.00">simulate()</text>
<text text-anchor="start" x="624.5" y="-90.8" font-family="Times New Roman,serif" font-size="14.00">sm_energy()</text>
<text text-anchor="start" x="624.5" y="-75.8" font-family="Times New Roman,serif" font-size="14.00">state()</text>
</g>
<!-- 9&#45;&gt;0 -->
<g id="edge6" class="edge"><title>9&#45;&gt;0</title>
<path fill="none" stroke="black" d="M642.608,-362.037C634.285,-386.333 622.946,-410.072 607.5,-430 566.587,-482.782 499.32,-518.649 446.076,-540.48"/>
<polygon fill="none" stroke="black" points="444.625,-537.291 436.646,-544.261 447.23,-543.788 444.625,-537.291"/>
</g>
</g>
</svg>
