<?xml version="1.0" encoding="UTF-8" standalone="no"?>
<!DOCTYPE svg PUBLIC "-//W3C//DTD SVG 1.1//EN"
 "http://www.w3.org/Graphics/SVG/1.1/DTD/svg11.dtd">
<!-- Generated by graphviz version 2.38.0 (20140413.2041)
 -->
<!-- Title: packages Pages: 1 -->
<svg width="1369pt" height="260pt"
 viewBox="0.00 0.00 1368.50 260.00" xmlns="http://www.w3.org/2000/svg" xmlns:xlink="http://www.w3.org/1999/xlink">
<g id="graph0" class="graph" transform="scale(1 1) rotate(0) translate(4 256)">
<title>packages</title>
<polygon fill="white" stroke="none" points="-4,4 -4,-256 1364.5,-256 1364.5,4 -4,4"/>
<!-- 0 -->
<g id="node1" class="node"><title>0</title>
<polygon fill="none" stroke="black" points="443.5,-36 389.5,-36 389.5,-0 443.5,-0 443.5,-36"/>
<text text-anchor="middle" x="416.5" y="-14.3" font-family="Times New Roman,serif" font-size="14.00">step4</text>
</g>
<!-- 1 -->
<g id="node2" class="node"><title>1</title>
<polygon fill="none" stroke="black" points="581,-36 462,-36 462,-0 581,-0 581,-36"/>
<text text-anchor="middle" x="521.5" y="-14.3" font-family="Times New Roman,serif" font-size="14.00">step4.components</text>
</g>
<!-- 2 -->
<g id="node3" class="node"><title>2</title>
<polygon fill="none" stroke="black" points="155,-108 0,-108 0,-72 155,-72 155,-108"/>
<text text-anchor="middle" x="77.5" y="-86.3" font-family="Times New Roman,serif" font-size="14.00">step4.components.boiler</text>
</g>
<!-- 1&#45;&gt;2 -->
<g id="edge1" class="edge"><title>1&#45;&gt;2</title>
<path fill="none" stroke="black" d="M461.754,-34.1761C458.632,-34.8263 455.533,-35.4395 452.5,-36 328.45,-58.9256 293.076,-51.8269 165.438,-71.7553"/>
<polygon fill="black" stroke="black" points="155.271,-73.3688 164.442,-67.3569 160.209,-72.585 165.147,-71.8013 165.147,-71.8013 165.147,-71.8013 160.209,-72.585 165.853,-76.2456 155.271,-73.3688 155.271,-73.3688"/>
</g>
<!-- 3 -->
<g id="node4" class="node"><title>3</title>
<polygon fill="none" stroke="black" points="354,-108 173,-108 173,-72 354,-72 354,-108"/>
<text text-anchor="middle" x="263.5" y="-86.3" font-family="Times New Roman,serif" font-size="14.00">step4.components.condenser</text>
</g>
<!-- 1&#45;&gt;3 -->
<g id="edge2" class="edge"><title>1&#45;&gt;3</title>
<path fill="none" stroke="black" d="M461.986,-35.1473C424.533,-45.3089 375.942,-58.4925 336.212,-69.2719"/>
<polygon fill="black" stroke="black" points="326.314,-71.9574 334.787,-64.9958 331.14,-70.6481 335.965,-69.3388 335.965,-69.3388 335.965,-69.3388 331.14,-70.6481 337.144,-73.6818 326.314,-71.9574 326.314,-71.9574"/>
</g>
<!-- 4 -->
<g id="node5" class="node"><title>4</title>
<polygon fill="none" stroke="black" points="597,-180 446,-180 446,-144 597,-144 597,-180"/>
<text text-anchor="middle" x="521.5" y="-158.3" font-family="Times New Roman,serif" font-size="14.00">step4.components.node</text>
</g>
<!-- 1&#45;&gt;4 -->
<g id="edge3" class="edge"><title>1&#45;&gt;4</title>
<path fill="none" stroke="black" d="M468.124,-36.1022C439.927,-46.3304 409.519,-59.692 401.5,-72 392.766,-85.4057 392.766,-94.5943 401.5,-108 410.457,-121.748 423.877,-131.956 438.539,-139.527"/>
<polygon fill="black" stroke="black" points="447.799,-143.908 436.835,-143.699 443.28,-141.77 438.76,-139.631 438.76,-139.631 438.76,-139.631 443.28,-141.77 440.684,-135.564 447.799,-143.908 447.799,-143.908"/>
</g>
<!-- 5 -->
<g id="node6" class="node"><title>5</title>
<polygon fill="none" stroke="black" points="632,-108 411,-108 411,-72 632,-72 632,-108"/>
<text text-anchor="middle" x="521.5" y="-86.3" font-family="Times New Roman,serif" font-size="14.00">step4.components.openedheaterdw0</text>
</g>
<!-- 1&#45;&gt;5 -->
<g id="edge4" class="edge"><title>1&#45;&gt;5</title>
<path fill="none" stroke="black" d="M521.5,-36.3034C521.5,-44.0173 521.5,-53.2875 521.5,-61.8876"/>
<polygon fill="black" stroke="black" points="521.5,-71.8957 517,-61.8956 521.5,-66.8957 521.5,-61.8957 521.5,-61.8957 521.5,-61.8957 521.5,-66.8957 526,-61.8957 521.5,-71.8957 521.5,-71.8957"/>
</g>
<!-- 6 -->
<g id="node7" class="node"><title>6</title>
<polygon fill="none" stroke="black" points="805,-108 650,-108 650,-72 805,-72 805,-108"/>
<text text-anchor="middle" x="727.5" y="-86.3" font-family="Times New Roman,serif" font-size="14.00">step4.components.pump</text>
</g>
<!-- 1&#45;&gt;6 -->
<g id="edge5" class="edge"><title>1&#45;&gt;6</title>
<path fill="none" stroke="black" d="M571.63,-36.0344C600.538,-45.8575 637.069,-58.2709 667.498,-68.6109"/>
<polygon fill="black" stroke="black" points="677.145,-71.8892 666.229,-72.9325 672.411,-70.2805 667.677,-68.6717 667.677,-68.6717 667.677,-68.6717 672.411,-70.2805 669.125,-64.411 677.145,-71.8892 677.145,-71.8892"/>
</g>
<!-- 7 -->
<g id="node8" class="node"><title>7</title>
<polygon fill="none" stroke="black" points="1004,-108 823,-108 823,-72 1004,-72 1004,-108"/>
<text text-anchor="middle" x="913.5" y="-86.3" font-family="Times New Roman,serif" font-size="14.00">step4.components.turbineex0</text>
</g>
<!-- 1&#45;&gt;7 -->
<g id="edge6" class="edge"><title>1&#45;&gt;7</title>
<path fill="none" stroke="black" d="M581.036,-29.6315C642.404,-40.5901 739.205,-57.8759 812.562,-70.9754"/>
<polygon fill="black" stroke="black" points="822.752,-72.7949 812.116,-75.4669 817.829,-71.9159 812.907,-71.0369 812.907,-71.0369 812.907,-71.0369 817.829,-71.9159 813.698,-66.607 822.752,-72.7949 822.752,-72.7949"/>
</g>
<!-- 8 -->
<g id="node9" class="node"><title>8</title>
<polygon fill="none" stroke="black" points="1203,-108 1022,-108 1022,-72 1203,-72 1203,-108"/>
<text text-anchor="middle" x="1112.5" y="-86.3" font-family="Times New Roman,serif" font-size="14.00">step4.components.turbineex1</text>
</g>
<!-- 1&#45;&gt;8 -->
<g id="edge7" class="edge"><title>1&#45;&gt;8</title>
<path fill="none" stroke="black" d="M581.354,-24.2766C672.072,-32.5356 850.025,-49.7567 1011.66,-71.9317"/>
<polygon fill="black" stroke="black" points="1021.79,-73.331 1011.26,-76.4202 1016.83,-72.6468 1011.88,-71.9625 1011.88,-71.9625 1011.88,-71.9625 1016.83,-72.6468 1012.5,-67.5049 1021.79,-73.331 1021.79,-73.331"/>
</g>
<!-- 2&#45;&gt;4 -->
<g id="edge8" class="edge"><title>2&#45;&gt;4</title>
<path fill="none" stroke="black" d="M155.285,-106.55C158.055,-107.049 160.8,-107.534 163.5,-108 256.337,-124.038 363.242,-139.472 435.884,-149.506"/>
<polygon fill="black" stroke="black" points="445.902,-150.886 435.381,-153.979 440.949,-150.204 435.995,-149.521 435.995,-149.521 435.995,-149.521 440.949,-150.204 436.609,-145.064 445.902,-150.886 445.902,-150.886"/>
</g>
<!-- 3&#45;&gt;4 -->
<g id="edge9" class="edge"><title>3&#45;&gt;4</title>
<path fill="none" stroke="black" d="M326.284,-108.034C363.116,-118.028 409.829,-130.702 448.324,-141.146"/>
<polygon fill="black" stroke="black" points="458.434,-143.889 447.605,-145.614 453.609,-142.58 448.783,-141.271 448.783,-141.271 448.783,-141.271 453.609,-142.58 449.962,-136.928 458.434,-143.889 458.434,-143.889"/>
</g>
<!-- 5&#45;&gt;4 -->
<g id="edge10" class="edge"><title>5&#45;&gt;4</title>
<path fill="none" stroke="black" d="M521.5,-108.303C521.5,-116.017 521.5,-125.288 521.5,-133.888"/>
<polygon fill="black" stroke="black" points="521.5,-143.896 517,-133.896 521.5,-138.896 521.5,-133.896 521.5,-133.896 521.5,-133.896 521.5,-138.896 526,-133.896 521.5,-143.896 521.5,-143.896"/>
</g>
<!-- 6&#45;&gt;4 -->
<g id="edge11" class="edge"><title>6&#45;&gt;4</title>
<path fill="none" stroke="black" d="M677.37,-108.034C648.462,-117.858 611.931,-130.271 581.502,-140.611"/>
<polygon fill="black" stroke="black" points="571.855,-143.889 579.875,-136.411 576.589,-142.28 581.323,-140.672 581.323,-140.672 581.323,-140.672 576.589,-142.28 582.771,-144.932 571.855,-143.889 571.855,-143.889"/>
</g>
<!-- 7&#45;&gt;4 -->
<g id="edge12" class="edge"><title>7&#45;&gt;4</title>
<path fill="none" stroke="black" d="M822.582,-107.235C757.639,-118.832 670.843,-134.332 607.131,-145.709"/>
<polygon fill="black" stroke="black" points="597.111,-147.498 606.164,-141.31 602.033,-146.619 606.955,-145.74 606.955,-145.74 606.955,-145.74 602.033,-146.619 607.746,-150.17 597.111,-147.498 597.111,-147.498"/>
</g>
<!-- 8&#45;&gt;4 -->
<g id="edge13" class="edge"><title>8&#45;&gt;4</title>
<path fill="none" stroke="black" d="M1021.79,-106.669C1018.65,-107.131 1015.55,-107.576 1012.5,-108 871.014,-127.644 705.729,-144.167 607.546,-153.311"/>
<polygon fill="black" stroke="black" points="597.378,-154.254 606.92,-148.85 602.357,-153.792 607.335,-153.331 607.335,-153.331 607.335,-153.331 602.357,-153.792 607.751,-157.811 597.378,-154.254 597.378,-154.254"/>
</g>
<!-- 9 -->
<g id="node10" class="node"><title>9</title>
<polygon fill="none" stroke="black" points="951.5,-36 871.5,-36 871.5,-0 951.5,-0 951.5,-36"/>
<text text-anchor="middle" x="911.5" y="-14.3" font-family="Times New Roman,serif" font-size="14.00">step4.cycle</text>
</g>
<!-- 10 -->
<g id="node11" class="node"><title>10</title>
<polygon fill="none" stroke="black" points="1360.5,-252 1214.5,-252 1214.5,-216 1360.5,-216 1360.5,-252"/>
<text text-anchor="middle" x="1287.5" y="-230.3" font-family="Times New Roman,serif" font-size="14.00">step4.cycle.createcycle</text>
</g>
<!-- 11 -->
<g id="node12" class="node"><title>11</title>
<polygon fill="none" stroke="black" points="1353,-180 1222,-180 1222,-144 1353,-144 1353,-180"/>
<text text-anchor="middle" x="1287.5" y="-158.3" font-family="Times New Roman,serif" font-size="14.00">step4.cycle.objcycle</text>
</g>
<!-- 11&#45;&gt;10 -->
<g id="edge14" class="edge"><title>11&#45;&gt;10</title>
<path fill="none" stroke="black" d="M1287.5,-180.303C1287.5,-188.017 1287.5,-197.288 1287.5,-205.888"/>
<polygon fill="black" stroke="black" points="1287.5,-215.896 1283,-205.896 1287.5,-210.896 1287.5,-205.896 1287.5,-205.896 1287.5,-205.896 1287.5,-210.896 1292,-205.896 1287.5,-215.896 1287.5,-215.896"/>
</g>
<!-- 12 -->
<g id="node13" class="node"><title>12</title>
<polygon fill="none" stroke="black" points="1353.5,-108 1221.5,-108 1221.5,-72 1353.5,-72 1353.5,-108"/>
<text text-anchor="middle" x="1287.5" y="-86.3" font-family="Times New Roman,serif" font-size="14.00">step4.cycle.simcycle</text>
</g>
<!-- 12&#45;&gt;11 -->
<g id="edge15" class="edge"><title>12&#45;&gt;11</title>
<path fill="none" stroke="black" d="M1287.5,-108.303C1287.5,-116.017 1287.5,-125.288 1287.5,-133.888"/>
<polygon fill="black" stroke="black" points="1287.5,-143.896 1283,-133.896 1287.5,-138.896 1287.5,-133.896 1287.5,-133.896 1287.5,-133.896 1287.5,-138.896 1292,-133.896 1287.5,-143.896 1287.5,-143.896"/>
</g>
<!-- 13 -->
<g id="node14" class="node"><title>13</title>
<polygon fill="none" stroke="black" points="1332.5,-36 1242.5,-36 1242.5,-0 1332.5,-0 1332.5,-36"/>
<text text-anchor="middle" x="1287.5" y="-14.3" font-family="Times New Roman,serif" font-size="14.00">step4.rankine</text>
</g>
<!-- 13&#45;&gt;12 -->
<g id="edge16" class="edge"><title>13&#45;&gt;12</title>
<path fill="none" stroke="black" d="M1287.5,-36.3034C1287.5,-44.0173 1287.5,-53.2875 1287.5,-61.8876"/>
<polygon fill="black" stroke="black" points="1287.5,-71.8957 1283,-61.8956 1287.5,-66.8957 1287.5,-61.8957 1287.5,-61.8957 1287.5,-61.8957 1287.5,-66.8957 1292,-61.8957 1287.5,-71.8957 1287.5,-71.8957"/>
</g>
</g>
</svg>
