<?xml version="1.0" encoding="UTF-8" standalone="no"?>
<!DOCTYPE svg PUBLIC "-//W3C//DTD SVG 1.1//EN"
 "http://www.w3.org/Graphics/SVG/1.1/DTD/svg11.dtd">
<!-- Generated by graphviz version 2.38.0 (20140413.2041)
 -->
<!-- Title: packages Pages: 1 -->
<svg width="1009pt" height="260pt"
 viewBox="0.00 0.00 1009.00 260.00" xmlns="http://www.w3.org/2000/svg" xmlns:xlink="http://www.w3.org/1999/xlink">
<g id="graph0" class="graph" transform="scale(1 1) rotate(0) translate(4 256)">
<title>packages</title>
<polygon fill="white" stroke="none" points="-4,4 -4,-256 1005,-256 1005,4 -4,4"/>
<!-- 1 -->
<g id="node1" class="node"><title>1</title>
<polygon fill="none" stroke="black" points="390.5,-36 304.5,-36 304.5,-0 390.5,-0 390.5,-36"/>
<text text-anchor="middle" x="347.5" y="-14.3" font-family="Times New Roman,serif" font-size="14.00">components</text>
</g>
<!-- 2 -->
<g id="node2" class="node"><title>2</title>
<polygon fill="none" stroke="black" points="121,-180 0,-180 0,-144 121,-144 121,-180"/>
<text text-anchor="middle" x="60.5" y="-158.3" font-family="Times New Roman,serif" font-size="14.00">components.boiler</text>
</g>
<!-- 4 -->
<g id="node4" class="node"><title>4</title>
<polygon fill="none" stroke="black" points="495,-252 378,-252 378,-216 495,-216 495,-252"/>
<text text-anchor="middle" x="436.5" y="-230.3" font-family="Times New Roman,serif" font-size="14.00">components.node</text>
</g>
<!-- 2&#45;&gt;4 -->
<g id="edge1" class="edge"><title>2&#45;&gt;4</title>
<path fill="none" stroke="black" d="M121.027,-178.169C123.887,-178.805 126.723,-179.419 129.5,-180 210.992,-197.051 305.479,-212.759 367.871,-222.574"/>
<polygon fill="black" stroke="black" points="377.984,-224.158 367.409,-227.057 373.045,-223.384 368.105,-222.611 368.105,-222.611 368.105,-222.611 373.045,-223.384 368.801,-218.165 377.984,-224.158 377.984,-224.158"/>
</g>
<!-- 3 -->
<g id="node3" class="node"><title>3</title>
<polygon fill="none" stroke="black" points="286,-180 139,-180 139,-144 286,-144 286,-180"/>
<text text-anchor="middle" x="212.5" y="-158.3" font-family="Times New Roman,serif" font-size="14.00">components.condenser</text>
</g>
<!-- 3&#45;&gt;4 -->
<g id="edge2" class="edge"><title>3&#45;&gt;4</title>
<path fill="none" stroke="black" d="M267.01,-180.034C298.716,-189.943 338.855,-202.486 372.113,-212.879"/>
<polygon fill="black" stroke="black" points="381.745,-215.889 370.858,-217.202 376.973,-214.398 372.201,-212.906 372.201,-212.906 372.201,-212.906 376.973,-214.398 373.543,-208.611 381.745,-215.889 381.745,-215.889"/>
</g>
<!-- 5 -->
<g id="node5" class="node"><title>5</title>
<polygon fill="none" stroke="black" points="530.5,-180 342.5,-180 342.5,-144 530.5,-144 530.5,-180"/>
<text text-anchor="middle" x="436.5" y="-158.3" font-family="Times New Roman,serif" font-size="14.00">components.openedheaterdw0</text>
</g>
<!-- 5&#45;&gt;4 -->
<g id="edge3" class="edge"><title>5&#45;&gt;4</title>
<path fill="none" stroke="black" d="M436.5,-180.303C436.5,-188.017 436.5,-197.288 436.5,-205.888"/>
<polygon fill="black" stroke="black" points="436.5,-215.896 432,-205.896 436.5,-210.896 436.5,-205.896 436.5,-205.896 436.5,-205.896 436.5,-210.896 441,-205.896 436.5,-215.896 436.5,-215.896"/>
</g>
<!-- 6 -->
<g id="node6" class="node"><title>6</title>
<polygon fill="none" stroke="black" points="670.5,-180 548.5,-180 548.5,-144 670.5,-144 670.5,-180"/>
<text text-anchor="middle" x="609.5" y="-158.3" font-family="Times New Roman,serif" font-size="14.00">components.pump</text>
</g>
<!-- 6&#45;&gt;4 -->
<g id="edge4" class="edge"><title>6&#45;&gt;4</title>
<path fill="none" stroke="black" d="M567.179,-180.124C543.319,-189.778 513.328,-201.913 488.097,-212.122"/>
<polygon fill="black" stroke="black" points="478.683,-215.932 486.265,-208.009 483.318,-214.056 487.953,-212.181 487.953,-212.181 487.953,-212.181 483.318,-214.056 489.641,-216.352 478.683,-215.932 478.683,-215.932"/>
</g>
<!-- 7 -->
<g id="node7" class="node"><title>7</title>
<polygon fill="none" stroke="black" points="836,-180 689,-180 689,-144 836,-144 836,-180"/>
<text text-anchor="middle" x="762.5" y="-158.3" font-family="Times New Roman,serif" font-size="14.00">components.turbineex0</text>
</g>
<!-- 7&#45;&gt;4 -->
<g id="edge5" class="edge"><title>7&#45;&gt;4</title>
<path fill="none" stroke="black" d="M688.933,-178.797C633.774,-190.64 558.826,-206.734 504.947,-218.303"/>
<polygon fill="black" stroke="black" points="495.141,-220.408 503.973,-213.909 500.03,-219.359 504.918,-218.309 504.918,-218.309 504.918,-218.309 500.03,-219.359 505.863,-222.709 495.141,-220.408 495.141,-220.408"/>
</g>
<!-- 8 -->
<g id="node8" class="node"><title>8</title>
<polygon fill="none" stroke="black" points="1001,-180 854,-180 854,-144 1001,-144 1001,-180"/>
<text text-anchor="middle" x="927.5" y="-158.3" font-family="Times New Roman,serif" font-size="14.00">components.turbineex1</text>
</g>
<!-- 8&#45;&gt;4 -->
<g id="edge6" class="edge"><title>8&#45;&gt;4</title>
<path fill="none" stroke="black" d="M853.792,-178.555C850.996,-179.058 848.224,-179.542 845.5,-180 726.495,-200.017 586.909,-216.65 505.423,-225.678"/>
<polygon fill="black" stroke="black" points="495.293,-226.794 504.74,-221.226 500.263,-226.247 505.232,-225.699 505.232,-225.699 505.232,-225.699 500.263,-226.247 505.725,-230.172 495.293,-226.794 495.293,-226.794"/>
</g>
<!-- 9 -->
<g id="node9" class="node"><title>9</title>
<polygon fill="none" stroke="black" points="464.5,-36 408.5,-36 408.5,-0 464.5,-0 464.5,-36"/>
<text text-anchor="middle" x="436.5" y="-14.3" font-family="Times New Roman,serif" font-size="14.00">rankine</text>
</g>
<!-- 10 -->
<g id="node10" class="node"><title>10</title>
<polygon fill="none" stroke="black" points="483,-108 390,-108 390,-72 483,-72 483,-108"/>
<text text-anchor="middle" x="436.5" y="-86.3" font-family="Times New Roman,serif" font-size="14.00">rankine_cycle</text>
</g>
<!-- 9&#45;&gt;10 -->
<g id="edge7" class="edge"><title>9&#45;&gt;10</title>
<path fill="none" stroke="black" d="M436.5,-36.3034C436.5,-44.0173 436.5,-53.2875 436.5,-61.8876"/>
<polygon fill="black" stroke="black" points="436.5,-71.8957 432,-61.8956 436.5,-66.8957 436.5,-61.8957 436.5,-61.8957 436.5,-61.8957 436.5,-66.8957 441,-61.8957 436.5,-71.8957 436.5,-71.8957"/>
</g>
<!-- 10&#45;&gt;2 -->
<g id="edge8" class="edge"><title>10&#45;&gt;2</title>
<path fill="none" stroke="black" d="M389.756,-98.0176C331.406,-107.01 228.351,-123.657 131.031,-143.749"/>
<polygon fill="black" stroke="black" points="121.027,-145.831 129.9,-139.388 125.922,-144.812 130.817,-143.794 130.817,-143.794 130.817,-143.794 125.922,-144.812 131.734,-148.199 121.027,-145.831 121.027,-145.831"/>
</g>
<!-- 10&#45;&gt;3 -->
<g id="edge9" class="edge"><title>10&#45;&gt;3</title>
<path fill="none" stroke="black" d="M389.815,-105.589C357.116,-115.807 313,-129.594 276.953,-140.858"/>
<polygon fill="black" stroke="black" points="267.016,-143.964 275.219,-136.686 271.789,-142.472 276.561,-140.981 276.561,-140.981 276.561,-140.981 271.789,-142.472 277.903,-145.276 267.016,-143.964 267.016,-143.964"/>
</g>
<!-- 10&#45;&gt;4 -->
<g id="edge10" class="edge"><title>10&#45;&gt;4</title>
<path fill="none" stroke="black" d="M389.751,-102.939C368.708,-110.899 345.859,-123.742 333.5,-144 325.167,-157.659 325.167,-166.341 333.5,-180 341.748,-193.52 354.668,-203.737 368.606,-211.404"/>
<polygon fill="black" stroke="black" points="377.872,-216.083 366.918,-215.593 373.409,-213.83 368.946,-211.576 368.946,-211.576 368.946,-211.576 373.409,-213.83 370.974,-207.559 377.872,-216.083 377.872,-216.083"/>
</g>
<!-- 10&#45;&gt;5 -->
<g id="edge11" class="edge"><title>10&#45;&gt;5</title>
<path fill="none" stroke="black" d="M436.5,-108.303C436.5,-116.017 436.5,-125.288 436.5,-133.888"/>
<polygon fill="black" stroke="black" points="436.5,-143.896 432,-133.896 436.5,-138.896 436.5,-133.896 436.5,-133.896 436.5,-133.896 436.5,-138.896 441,-133.896 436.5,-143.896 436.5,-143.896"/>
</g>
<!-- 10&#45;&gt;6 -->
<g id="edge12" class="edge"><title>10&#45;&gt;6</title>
<path fill="none" stroke="black" d="M478.821,-108.124C502.681,-117.778 532.672,-129.913 557.903,-140.122"/>
<polygon fill="black" stroke="black" points="567.317,-143.932 556.359,-144.352 562.682,-142.056 558.047,-140.181 558.047,-140.181 558.047,-140.181 562.682,-142.056 559.735,-136.009 567.317,-143.932 567.317,-143.932"/>
</g>
<!-- 10&#45;&gt;7 -->
<g id="edge13" class="edge"><title>10&#45;&gt;7</title>
<path fill="none" stroke="black" d="M483.208,-101.029C534.179,-111.974 616.806,-129.716 678.993,-143.069"/>
<polygon fill="black" stroke="black" points="688.79,-145.173 678.068,-147.473 683.901,-144.123 679.013,-143.073 679.013,-143.073 679.013,-143.073 683.901,-144.123 679.957,-138.673 688.79,-145.173 688.79,-145.173"/>
</g>
<!-- 10&#45;&gt;8 -->
<g id="edge14" class="edge"><title>10&#45;&gt;8</title>
<path fill="none" stroke="black" d="M483.287,-95.8987C557.591,-103.933 707.332,-121.16 843.589,-143.74"/>
<polygon fill="black" stroke="black" points="853.792,-145.445 843.187,-148.235 848.861,-144.621 843.929,-143.797 843.929,-143.797 843.929,-143.797 848.861,-144.621 844.671,-139.358 853.792,-145.445 853.792,-145.445"/>
</g>
</g>
</svg>
