<?xml version="1.0" encoding="UTF-8" standalone="no"?>
<!DOCTYPE svg PUBLIC "-//W3C//DTD SVG 1.1//EN"
 "http://www.w3.org/Graphics/SVG/1.1/DTD/svg11.dtd">
<!-- Generated by graphviz version 2.38.0 (20140413.2041)
 -->
<!-- Title: classes Pages: 1 -->
<svg width="694pt" height="273pt"
 viewBox="0.00 0.00 693.50 273.00" xmlns="http://www.w3.org/2000/svg" xmlns:xlink="http://www.w3.org/1999/xlink">
<g id="graph0" class="graph" transform="scale(1 1) rotate(0) translate(4 269)">
<title>classes</title>
<polygon fill="white" stroke="none" points="-4,4 -4,-269 689.5,-269 689.5,4 -4,4"/>
<!-- 0 -->
<g id="node1" class="node"><title>0</title>
<polygon fill="none" stroke="black" points="0,-8 0,-257 94,-257 94,-8 0,-8"/>
<text text-anchor="middle" x="47" y="-241.8" font-family="Times New Roman,serif" font-size="14.00">Node</text>
<polyline fill="none" stroke="black" points="0,-234 94,-234 "/>
<text text-anchor="start" x="8" y="-218.8" font-family="Times New Roman,serif" font-size="14.00">h : NoneType</text>
<text text-anchor="start" x="8" y="-203.8" font-family="Times New Roman,serif" font-size="14.00">name</text>
<text text-anchor="start" x="8" y="-188.8" font-family="Times New Roman,serif" font-size="14.00">nid</text>
<text text-anchor="start" x="8" y="-173.8" font-family="Times New Roman,serif" font-size="14.00">p : NoneType</text>
<text text-anchor="start" x="8" y="-158.8" font-family="Times New Roman,serif" font-size="14.00">s : NoneType</text>
<text text-anchor="start" x="8" y="-143.8" font-family="Times New Roman,serif" font-size="14.00">t : NoneType</text>
<text text-anchor="start" x="8" y="-128.8" font-family="Times New Roman,serif" font-size="14.00">v : NoneType</text>
<text text-anchor="start" x="8" y="-113.8" font-family="Times New Roman,serif" font-size="14.00">x : NoneType</text>
<polyline fill="none" stroke="black" points="0,-106 94,-106 "/>
<text text-anchor="start" x="8" y="-90.8" font-family="Times New Roman,serif" font-size="14.00">hs()</text>
<text text-anchor="start" x="8" y="-75.8" font-family="Times New Roman,serif" font-size="14.00">ph()</text>
<text text-anchor="start" x="8" y="-60.8" font-family="Times New Roman,serif" font-size="14.00">ps()</text>
<text text-anchor="start" x="8" y="-45.8" font-family="Times New Roman,serif" font-size="14.00">pt()</text>
<text text-anchor="start" x="8" y="-30.8" font-family="Times New Roman,serif" font-size="14.00">px()</text>
<text text-anchor="start" x="8" y="-15.8" font-family="Times New Roman,serif" font-size="14.00">tx()</text>
</g>
<!-- 1 -->
<g id="node2" class="node"><title>1</title>
<polygon fill="none" stroke="black" points="112,-53 112,-212 204,-212 204,-53 112,-53"/>
<text text-anchor="middle" x="158" y="-196.8" font-family="Times New Roman,serif" font-size="14.00">Boiler</text>
<polyline fill="none" stroke="black" points="112,-189 204,-189 "/>
<text text-anchor="start" x="120" y="-173.8" font-family="Times New Roman,serif" font-size="14.00">Qindot</text>
<text text-anchor="start" x="120" y="-158.8" font-family="Times New Roman,serif" font-size="14.00">exitNode</text>
<text text-anchor="start" x="120" y="-143.8" font-family="Times New Roman,serif" font-size="14.00">heatAdded</text>
<text text-anchor="start" x="120" y="-128.8" font-family="Times New Roman,serif" font-size="14.00">inletNode</text>
<text text-anchor="start" x="120" y="-113.8" font-family="Times New Roman,serif" font-size="14.00">name</text>
<polyline fill="none" stroke="black" points="112,-106 204,-106 "/>
<text text-anchor="start" x="120" y="-90.8" font-family="Times New Roman,serif" font-size="14.00">mdotenergy()</text>
<text text-anchor="start" x="120" y="-75.8" font-family="Times New Roman,serif" font-size="14.00">simulate()</text>
<text text-anchor="start" x="120" y="-60.8" font-family="Times New Roman,serif" font-size="14.00">state()</text>
</g>
<!-- 2 -->
<g id="node3" class="node"><title>2</title>
<polygon fill="none" stroke="black" points="222.5,-15.5 222.5,-249.5 317.5,-249.5 317.5,-15.5 222.5,-15.5"/>
<text text-anchor="middle" x="270" y="-234.3" font-family="Times New Roman,serif" font-size="14.00">Condenser</text>
<polyline fill="none" stroke="black" points="222.5,-226.5 317.5,-226.5 "/>
<text text-anchor="start" x="230.5" y="-211.3" font-family="Times New Roman,serif" font-size="14.00">Qoutdot</text>
<text text-anchor="start" x="230.5" y="-196.3" font-family="Times New Roman,serif" font-size="14.00">exitNode</text>
<text text-anchor="start" x="230.5" y="-181.3" font-family="Times New Roman,serif" font-size="14.00">exitNodeW</text>
<text text-anchor="start" x="230.5" y="-166.3" font-family="Times New Roman,serif" font-size="14.00">heatExtracted</text>
<text text-anchor="start" x="230.5" y="-151.3" font-family="Times New Roman,serif" font-size="14.00">inletNode</text>
<text text-anchor="start" x="230.5" y="-136.3" font-family="Times New Roman,serif" font-size="14.00">inletNodeW</text>
<text text-anchor="start" x="230.5" y="-121.3" font-family="Times New Roman,serif" font-size="14.00">mcwdot</text>
<text text-anchor="start" x="230.5" y="-106.3" font-family="Times New Roman,serif" font-size="14.00">name</text>
<polyline fill="none" stroke="black" points="222.5,-98.5 317.5,-98.5 "/>
<text text-anchor="start" x="230.5" y="-83.3" font-family="Times New Roman,serif" font-size="14.00">cw_nodes()</text>
<text text-anchor="start" x="230.5" y="-68.3" font-family="Times New Roman,serif" font-size="14.00">cw_simulate()</text>
<text text-anchor="start" x="230.5" y="-53.3" font-family="Times New Roman,serif" font-size="14.00">mdotenergy()</text>
<text text-anchor="start" x="230.5" y="-38.3" font-family="Times New Roman,serif" font-size="14.00">simulate()</text>
<text text-anchor="start" x="230.5" y="-23.3" font-family="Times New Roman,serif" font-size="14.00">state()</text>
</g>
<!-- 3 -->
<g id="node4" class="node"><title>3</title>
<polygon fill="none" stroke="black" points="336,-53 336,-212 432,-212 432,-53 336,-53"/>
<text text-anchor="middle" x="384" y="-196.8" font-family="Times New Roman,serif" font-size="14.00">Pump</text>
<polyline fill="none" stroke="black" points="336,-189 432,-189 "/>
<text text-anchor="start" x="344" y="-173.8" font-family="Times New Roman,serif" font-size="14.00">WRequired</text>
<text text-anchor="start" x="344" y="-158.8" font-family="Times New Roman,serif" font-size="14.00">exitNode</text>
<text text-anchor="start" x="344" y="-143.8" font-family="Times New Roman,serif" font-size="14.00">inletNode</text>
<text text-anchor="start" x="344" y="-128.8" font-family="Times New Roman,serif" font-size="14.00">name</text>
<text text-anchor="start" x="344" y="-113.8" font-family="Times New Roman,serif" font-size="14.00">workRequired</text>
<polyline fill="none" stroke="black" points="336,-106 432,-106 "/>
<text text-anchor="start" x="344" y="-90.8" font-family="Times New Roman,serif" font-size="14.00">mdotenergy()</text>
<text text-anchor="start" x="344" y="-75.8" font-family="Times New Roman,serif" font-size="14.00">simulate()</text>
<text text-anchor="start" x="344" y="-60.8" font-family="Times New Roman,serif" font-size="14.00">state()</text>
</g>
<!-- 4 -->
<g id="node5" class="node"><title>4</title>
<polygon fill="none" stroke="black" points="450,-53 450,-212 548,-212 548,-53 450,-53"/>
<text text-anchor="middle" x="499" y="-196.8" font-family="Times New Roman,serif" font-size="14.00">Turbine</text>
<polyline fill="none" stroke="black" points="450,-189 548,-189 "/>
<text text-anchor="start" x="458" y="-173.8" font-family="Times New Roman,serif" font-size="14.00">WExtracted</text>
<text text-anchor="start" x="458" y="-158.8" font-family="Times New Roman,serif" font-size="14.00">exitNode</text>
<text text-anchor="start" x="458" y="-143.8" font-family="Times New Roman,serif" font-size="14.00">inletNode</text>
<text text-anchor="start" x="458" y="-128.8" font-family="Times New Roman,serif" font-size="14.00">name</text>
<text text-anchor="start" x="458" y="-113.8" font-family="Times New Roman,serif" font-size="14.00">workExtracted</text>
<polyline fill="none" stroke="black" points="450,-106 548,-106 "/>
<text text-anchor="start" x="458" y="-90.8" font-family="Times New Roman,serif" font-size="14.00">mdotenergy()</text>
<text text-anchor="start" x="458" y="-75.8" font-family="Times New Roman,serif" font-size="14.00">simulate()</text>
<text text-anchor="start" x="458" y="-60.8" font-family="Times New Roman,serif" font-size="14.00">state()</text>
</g>
<!-- 5 -->
<g id="node6" class="node"><title>5</title>
<polygon fill="none" stroke="black" points="566.5,-0.5 566.5,-264.5 685.5,-264.5 685.5,-0.5 566.5,-0.5"/>
<text text-anchor="middle" x="626" y="-249.3" font-family="Times New Roman,serif" font-size="14.00">RankineCycle</text>
<polyline fill="none" stroke="black" points="566.5,-241.5 685.5,-241.5 "/>
<text text-anchor="start" x="574.5" y="-226.3" font-family="Times New Roman,serif" font-size="14.00">DevNum</text>
<text text-anchor="start" x="574.5" y="-211.3" font-family="Times New Roman,serif" font-size="14.00">NodeNum</text>
<text text-anchor="start" x="574.5" y="-196.3" font-family="Times New Roman,serif" font-size="14.00">Wcycledot</text>
<text text-anchor="start" x="574.5" y="-181.3" font-family="Times New Roman,serif" font-size="14.00">bwr</text>
<text text-anchor="start" x="574.5" y="-166.3" font-family="Times New Roman,serif" font-size="14.00">devs : dict</text>
<text text-anchor="start" x="574.5" y="-151.3" font-family="Times New Roman,serif" font-size="14.00">efficiency</text>
<text text-anchor="start" x="574.5" y="-136.3" font-family="Times New Roman,serif" font-size="14.00">mdot</text>
<text text-anchor="start" x="574.5" y="-121.3" font-family="Times New Roman,serif" font-size="14.00">name</text>
<text text-anchor="start" x="574.5" y="-106.3" font-family="Times New Roman,serif" font-size="14.00">nodes : list</text>
<text text-anchor="start" x="574.5" y="-91.3" font-family="Times New Roman,serif" font-size="14.00">nodew : list</text>
<polyline fill="none" stroke="black" points="566.5,-83.5 685.5,-83.5 "/>
<text text-anchor="start" x="574.5" y="-68.3" font-family="Times New Roman,serif" font-size="14.00">cw_simulate()</text>
<text text-anchor="start" x="574.5" y="-53.3" font-family="Times New Roman,serif" font-size="14.00">export()</text>
<text text-anchor="start" x="574.5" y="-38.3" font-family="Times New Roman,serif" font-size="14.00">simulate()</text>
<text text-anchor="start" x="574.5" y="-23.3" font-family="Times New Roman,serif" font-size="14.00">spower_simulate()</text>
<text text-anchor="start" x="574.5" y="-8.3" font-family="Times New Roman,serif" font-size="14.00">state()</text>
</g>
</g>
</svg>
