<?xml version="1.0" encoding="UTF-8" standalone="no"?>
<!DOCTYPE svg PUBLIC "-//W3C//DTD SVG 1.1//EN"
 "http://www.w3.org/Graphics/SVG/1.1/DTD/svg11.dtd">
<!-- Generated by graphviz version 2.38.0 (20140413.2041)
 -->
<!-- Title: packages Pages: 1 -->
<svg width="338pt" height="188pt"
 viewBox="0.00 0.00 337.50 188.00" xmlns="http://www.w3.org/2000/svg" xmlns:xlink="http://www.w3.org/1999/xlink">
<g id="graph0" class="graph" transform="scale(1 1) rotate(0) translate(4 184)">
<title>packages</title>
<polygon fill="white" stroke="none" points="-4,4 -4,-184 333.5,-184 333.5,4 -4,4"/>
<!-- 1 -->
<g id="node1" class="node"><title>1</title>
<polygon fill="none" stroke="black" points="54,-108 0,-108 0,-72 54,-72 54,-108"/>
<text text-anchor="middle" x="27" y="-86.3" font-family="Times New Roman,serif" font-size="14.00">boiler</text>
</g>
<!-- 3 -->
<g id="node3" class="node"><title>3</title>
<polygon fill="none" stroke="black" points="201,-180 147,-180 147,-144 201,-144 201,-180"/>
<text text-anchor="middle" x="174" y="-158.3" font-family="Times New Roman,serif" font-size="14.00">node</text>
</g>
<!-- 1&#45;&gt;3 -->
<g id="edge1" class="edge"><title>1&#45;&gt;3</title>
<path fill="none" stroke="black" d="M54.3051,-104.002C77.8207,-115.2 111.946,-131.45 137.747,-143.737"/>
<polygon fill="black" stroke="black" points="146.841,-148.067 135.878,-147.831 142.327,-145.918 137.813,-143.768 137.813,-143.768 137.813,-143.768 142.327,-145.918 139.747,-139.705 146.841,-148.067 146.841,-148.067"/>
</g>
<!-- 2 -->
<g id="node2" class="node"><title>2</title>
<polygon fill="none" stroke="black" points="146,-108 72,-108 72,-72 146,-72 146,-108"/>
<text text-anchor="middle" x="109" y="-86.3" font-family="Times New Roman,serif" font-size="14.00">condenser</text>
</g>
<!-- 2&#45;&gt;3 -->
<g id="edge2" class="edge"><title>2&#45;&gt;3</title>
<path fill="none" stroke="black" d="M125.067,-108.303C132.939,-116.78 142.555,-127.136 151.173,-136.417"/>
<polygon fill="black" stroke="black" points="158.117,-143.896 148.015,-139.63 154.715,-140.232 151.313,-136.568 151.313,-136.568 151.313,-136.568 154.715,-140.232 154.61,-133.506 158.117,-143.896 158.117,-143.896"/>
</g>
<!-- 4 -->
<g id="node4" class="node"><title>4</title>
<polygon fill="none" stroke="black" points="256,-108 202,-108 202,-72 256,-72 256,-108"/>
<text text-anchor="middle" x="229" y="-86.3" font-family="Times New Roman,serif" font-size="14.00">pump</text>
</g>
<!-- 4&#45;&gt;3 -->
<g id="edge3" class="edge"><title>4&#45;&gt;3</title>
<path fill="none" stroke="black" d="M215.404,-108.303C208.877,-116.611 200.932,-126.723 193.753,-135.859"/>
<polygon fill="black" stroke="black" points="187.439,-143.896 190.079,-133.252 190.528,-139.964 193.617,-136.032 193.617,-136.032 193.617,-136.032 190.528,-139.964 197.156,-138.813 187.439,-143.896 187.439,-143.896"/>
</g>
<!-- 5 -->
<g id="node5" class="node"><title>5</title>
<polygon fill="none" stroke="black" points="202,-36 146,-36 146,-0 202,-0 202,-36"/>
<text text-anchor="middle" x="174" y="-14.3" font-family="Times New Roman,serif" font-size="14.00">rankine</text>
</g>
<!-- 5&#45;&gt;1 -->
<g id="edge4" class="edge"><title>5&#45;&gt;1</title>
<path fill="none" stroke="black" d="M145.657,-32.4967C122.279,-43.6289 88.9511,-59.4995 63.5653,-71.588"/>
<polygon fill="black" stroke="black" points="54.2621,-76.018 61.356,-67.6558 58.7764,-73.8683 63.2907,-71.7187 63.2907,-71.7187 63.2907,-71.7187 58.7764,-73.8683 65.2254,-75.7815 54.2621,-76.018 54.2621,-76.018"/>
</g>
<!-- 5&#45;&gt;2 -->
<g id="edge5" class="edge"><title>5&#45;&gt;2</title>
<path fill="none" stroke="black" d="M157.933,-36.3034C150.061,-44.7802 140.445,-55.1364 131.827,-64.4174"/>
<polygon fill="black" stroke="black" points="124.883,-71.8957 128.39,-61.5057 128.285,-68.2317 131.687,-64.5677 131.687,-64.5677 131.687,-64.5677 128.285,-68.2317 134.985,-67.6297 124.883,-71.8957 124.883,-71.8957"/>
</g>
<!-- 5&#45;&gt;3 -->
<g id="edge6" class="edge"><title>5&#45;&gt;3</title>
<path fill="none" stroke="black" d="M174,-36.1285C174,-60.3298 174,-104.789 174,-133.607"/>
<polygon fill="black" stroke="black" points="174,-143.811 169.5,-133.811 174,-138.811 174,-133.811 174,-133.811 174,-133.811 174,-138.811 178.5,-133.811 174,-143.811 174,-143.811"/>
</g>
<!-- 5&#45;&gt;4 -->
<g id="edge7" class="edge"><title>5&#45;&gt;4</title>
<path fill="none" stroke="black" d="M187.596,-36.3034C194.123,-44.6107 202.068,-54.7229 209.247,-63.8593"/>
<polygon fill="black" stroke="black" points="215.561,-71.8957 205.844,-66.8127 212.472,-67.9641 209.383,-64.0325 209.383,-64.0325 209.383,-64.0325 212.472,-67.9641 212.921,-61.2522 215.561,-71.8957 215.561,-71.8957"/>
</g>
<!-- 6 -->
<g id="node6" class="node"><title>6</title>
<polygon fill="none" stroke="black" points="329.5,-108 274.5,-108 274.5,-72 329.5,-72 329.5,-108"/>
<text text-anchor="middle" x="302" y="-86.3" font-family="Times New Roman,serif" font-size="14.00">turbine</text>
</g>
<!-- 5&#45;&gt;6 -->
<g id="edge8" class="edge"><title>5&#45;&gt;6</title>
<path fill="none" stroke="black" d="M202.09,-34.3618C220.725,-44.5527 245.365,-58.0278 265.512,-69.0459"/>
<polygon fill="black" stroke="black" points="274.415,-73.9147 263.483,-73.0647 270.029,-71.5156 265.642,-69.1165 265.642,-69.1165 265.642,-69.1165 270.029,-71.5156 267.801,-65.1684 274.415,-73.9147 274.415,-73.9147"/>
</g>
<!-- 6&#45;&gt;3 -->
<g id="edge9" class="edge"><title>6&#45;&gt;3</title>
<path fill="none" stroke="black" d="M274.226,-106.189C255.48,-116.441 230.551,-130.073 210.246,-141.178"/>
<polygon fill="black" stroke="black" points="201.28,-146.081 207.895,-137.335 205.667,-143.682 210.054,-141.283 210.054,-141.283 210.054,-141.283 205.667,-143.682 212.213,-145.231 201.28,-146.081 201.28,-146.081"/>
</g>
</g>
</svg>
